<?xml version="1.0" encoding="UTF-8" standalone="no"?>
<!-- Created with Inkscape (http://www.inkscape.org/) -->

<svg
   width="514mm"
   height="361mm"
   viewBox="0 0 514 361"
   version="1.1"
   id="svg1"
   xml:space="preserve"
   inkscape:version="1.3.2 (091e20e, 2023-11-25, custom)"
   xmlns:inkscape="http://www.inkscape.org/namespaces/inkscape"
   xmlns:sodipodi="http://sodipodi.sourceforge.net/DTD/sodipodi-0.dtd"
   xmlns="http://www.w3.org/2000/svg"
   xmlns:svg="http://www.w3.org/2000/svg"><sodipodi:namedview
     id="namedview1"
     pagecolor="#ffffff"
     bordercolor="#000000"
     borderopacity="0.25"
     inkscape:showpageshadow="2"
     inkscape:pageopacity="0.0"
     inkscape:pagecheckerboard="0"
     inkscape:deskcolor="#d1d1d1"
     inkscape:document-units="mm"
     inkscape:zoom="0.37197259"
     inkscape:cx="567.2461"
     inkscape:cy="883.12959"
     inkscape:window-width="2560"
     inkscape:window-height="1377"
     inkscape:window-x="1912"
     inkscape:window-y="-8"
     inkscape:window-maximized="1"
     inkscape:current-layer="layer1" /><defs
     id="defs1" /><g
     inkscape:label="Calque 1"
     inkscape:groupmode="layer"
     id="layer1"><path
       d="m 251.30038,2.0487065 c -10.64002,0 -19.20002,8.5599975 -19.20002,19.1999945 0,10.64 8.56,19.19999 19.20002,19.19999 h 20.55999 l 27.67999,51.20002 h -119.52 l -21.92,-30.4 c -3.6,-5.04002 -9.44,-7.99999 -15.6,-7.99999 H 97.700372 c -10.64,0 -19.199997,8.55999 -19.199997,19.2 0,10.63997 8.559997,19.19999 19.199997,19.19999 h 34.959988 l 17.68,24.559949 -21.28,42.48001 c -8,-2 -16.4,-3.04001 -24.96,-3.04001 -56.559985,0 -102.399983,45.84002 -102.399983,102.40001 0,56.56 45.839998,102.40001 102.399983,102.40001 52.24,0 95.28,-39.12001 101.6,-89.60002 h 39.20001 c 6.8,0 13.04,-3.59998 16.55998,-9.43999 l 67.84001,-114.8 17.36001,32.07999 c -23.04,18.80001 -37.75999,47.36002 -37.75999,79.36001 0,56.56 45.83998,102.40001 102.40001,102.40001 56.55999,0 102.39997,-45.84001 102.39997,-102.40001 0,-56.55999 -45.83998,-102.40001 -102.39997,-102.40001 -10.80002,0 -21.20001,1.68002 -30.96002,4.8 l -78.32,-144.959954 C 297.54036,7.1687068 288.90036,2.0487065 279.46037,2.0487065 Z m 117.28001,217.3599535 25.83999,47.76001 c 5.03999,9.35999 16.72,12.80002 26.00001,7.76001 9.27998,-5.04002 12.79999,-16.72 7.75997,-26.00001 l -25.83999,-47.76001 c 2.88,-0.48 5.92001,-0.71999 8.96002,-0.71999 31.83998,0 57.59999,25.75999 57.59999,57.6 0,31.84001 -25.76001,57.6 -57.59999,57.6 -31.84001,0 -57.6,-25.75999 -57.6,-57.6 0,-14.88 5.59999,-28.4 14.88,-38.64001 z m -260.32003,51.44 h 52 c -5.84,25.68002 -28.8,44.80001 -56.16,44.80001 -31.839985,0 -57.599984,-25.75999 -57.599984,-57.6 0,-31.84001 25.759999,-57.6 57.599984,-57.6 1.36,0 2.72,0.0801 4.08,0.15995 l -19.359988,38.8 c -7.199997,14.48 3.28,31.51999 19.439988,31.51999 z m 26.96,-38.4 40.56,-81.03999 58.32,80.95999 -0.08,0.0801 h -98.87999 z m 72.48,-102.39998 h 86.72001 l -39.12002,66.24 -47.67999,-66.24 z"
       id="path1"
       style="fill:#d4ae00;fill-opacity:1;stroke-width:0.799999" /><path
       d="m 390.13862,202.7489 v 8.59376 h 34.375 v -8.59376 c 0,-0.9453 -0.77344,-1.71874 -1.71875,-1.71874 h -30.9375 c -0.94531,0 -1.71875,0.77344 -1.71875,1.71874 z m -10.3125,8.59376 v -8.59376 c 0,-6.63866 5.39258,-12.03124 12.03125,-12.03124 h 30.9375 c 6.63867,0 12.03125,5.39258 12.03125,12.03124 v 8.59376 6.875 75.625 h -55 v -75.62499 z m -13.75,0 h 6.875 v 82.5 h -6.875 c -7.58398,0 -13.75,-6.16602 -13.75,-13.75 v -55 c 0,-7.58398 6.16602,-13.74999 13.75,-13.75 z m 82.5,82.5 h -6.875 v -82.49999 h 6.875 c 7.58398,0 13.75,6.16601 13.75,13.74999 v 55 c 0,7.58398 -6.16602,13.75 -13.75,13.75 z"
       id="path1-5"
       style="fill:#b87600;fill-opacity:1;stroke-width:0.214843" /><path
       d="m 97.1003,202.74891 v 8.59376 h 34.37499 v -8.59376 c 0,-0.9453 -0.77344,-1.71874 -1.71875,-1.71874 H 98.819049 c -0.945309,0 -1.718749,0.77344 -1.718749,1.71874 z m -10.3125,8.59376 v -8.59376 c 0,-6.63866 5.39258,-12.03124 12.031249,-12.03124 h 30.937491 c 6.63867,0 12.03125,5.39258 12.03125,12.03124 v 8.59376 6.875 75.62499 H 86.7878 v -75.62499 z m -13.75,0 h 6.875 v 82.49999 h -6.875 c -7.58398,0 -13.75,-6.16602 -13.75,-13.75 v -55 c 0,-7.58398 6.16602,-13.74999 13.75,-13.74999 z m 82.49999,82.49999 h -6.875 v -82.49999 h 6.875 c 7.58398,0 13.75,6.16601 13.75,13.74999 v 55 c 0,7.58398 -6.16602,13.75 -13.75,13.75 z"
       id="path1-5-4"
       style="fill:#b87600;fill-opacity:1;stroke-width:0.214843" /></g></svg>
