<?xml version="1.0" encoding="UTF-8" standalone="no"?>
<svg
   viewBox="0 0 589 512"
   version="1.1"
   id="svg866"
   sodipodi:docname="pen-ruler-solid.svg"
   width="589"
   height="512"
   inkscape:version="1.1.2 (0a00cf5339, 2022-02-04)"
   xmlns:inkscape="http://www.inkscape.org/namespaces/inkscape"
   xmlns:sodipodi="http://sodipodi.sourceforge.net/DTD/sodipodi-0.dtd"
   xmlns="http://www.w3.org/2000/svg"
   xmlns:svg="http://www.w3.org/2000/svg">
  <defs
     id="defs870" />
  <sodipodi:namedview
     id="namedview868"
     pagecolor="#ffffff"
     bordercolor="#666666"
     borderopacity="1.0"
     inkscape:pageshadow="2"
     inkscape:pageopacity="0.0"
     inkscape:pagecheckerboard="0"
     showgrid="false"
     inkscape:zoom="0.81445313"
     inkscape:cx="154.09113"
     inkscape:cy="203.81775"
     inkscape:window-width="1920"
     inkscape:window-height="1043"
     inkscape:window-x="0"
     inkscape:window-y="0"
     inkscape:window-maximized="1"
     inkscape:current-layer="g1111" />
  <!--!Font Awesome Free 6.5.1 by @fontawesome - https://fontawesome.com License - https://fontawesome.com/license/free Copyright 2024 Fonticons, Inc.-->
  <g
     id="g1111"
     transform="translate(12.105516,5.7793765)">
    <path
       d="m 163.89448,18.220623 c 0,-13.2999995 -10.7,-23.9999995 -24,-23.9999995 -13.3,0 -24,10.7 -24,23.9999995 v 40 c -35.299997,0 -63.999996,28.700005 -63.999996,64.000007 h -40 c -13.3,0 -24,10.7 -24,24 0,13.3 10.7,24 24,24 h 40 v 56 h -40 c -13.3,0 -24,10.7 -24,24 0,13.3 10.7,24 24,24 h 40 v 56 h -40 c -13.3,0 -24,10.7 -24,24 0,13.3 10.7,24 24,24 h 40 c 0,35.3 28.699999,64 63.999996,64 v 40 c 0,13.3 10.7,24 24,24 13.3,0 24,-10.7 24,-24 v -40 h 56 v 40 c 0,13.3 10.7,24 24,24 13.3,0 24,-10.7 24,-24 v -40 h 56 v 40 c 0,13.3 10.7,24 24,24 13.3,0 24,-10.7 24,-24 v -40 c 35.3,0 64,-28.7 64,-64 h 40 c 13.3,0 24,-10.7 24,-24 0,-13.3 -10.7,-24 -24,-24 h -40 v -56 h 40 c 13.3,0 24,-10.7 24,-24 0,-13.3 -10.7,-24 -24,-24 h -40 v -56 h 40 c 13.3,0 24,-10.7 24,-24 0,-13.3 -10.7,-24 -24,-24 h -40 c 0,-35.300002 -28.7,-64.000007 -64,-64.000007 v -40 c 0,-13.2999995 -10.7,-23.9999995 -24,-23.9999995 -13.3,0 -24,10.7 -24,23.9999995 v 40 h -56 v -40 c 0,-13.2999995 -10.7,-23.9999995 -24,-23.9999995 -13.3,0 -24,10.7 -24,23.9999995 v 40 h -56 z m -16,103.999997 h 192 c 17.7,0 32,14.30001 32,32.00001 v 192 c 0,17.7 -14.3,32 -32,32 h -192 c -17.7,0 -32,-14.3 -32,-32 v -192 c 0,-17.7 14.3,-32.00001 32,-32.00001 z m 192,32.00001 h -192 v 192 h 192 z"
       id="path992"
       style="fill:#d4ae00;fill-opacity:1" />
    <path
       d="m 550.25849,198.38027 13.72478,13.72481 c 14.66326,14.66323 14.66326,38.41769 0,53.08095 l -33.08028,33.08028 -66.86441,-66.80575 33.0803,-33.08029 c 14.66324,-14.66324 38.4177,-14.66324 53.08095,0 z M 301.33521,394.2226 450.78303,244.71613 l 66.8644,66.8644 -149.50646,149.44782 c -3.92975,3.92974 -8.8566,6.80374 -14.19403,8.32872 l -60.9991,17.41993 c -4.92685,1.40768 -10.20562,0.0587 -13.84211,-3.57782 -3.63648,-3.63648 -4.9855,-8.91526 -3.57783,-13.84211 l 17.41994,-60.99912 c 1.52497,-5.39606 4.39897,-10.26426 8.32872,-14.19401 z M 421.28057,247.70744 335.64721,333.34079 284.3845,282.01942 c -10.96811,-10.9681 -10.96811,-28.79861 0,-39.82537 l 45.80798,-45.74932 c 10.96811,-10.96811 28.79862,-10.96811 39.82538,0 l 11.61329,11.61329 c -0.17588,0.17589 -0.41057,0.35192 -0.58655,0.52787 l -37.53791,37.53792 c -3.63649,3.63648 -3.63649,9.61908 0,13.25558 3.63648,3.63648 9.61908,3.63648 13.25558,0 l 37.53791,-37.53793 c 0.17607,-0.17589 0.3519,-0.41056 0.52788,-0.58652 z m 93.37555,93.37555 26.4525,26.4525 c -0.17607,0.17588 -0.41059,0.3519 -0.58652,0.52788 l -37.53791,37.53791 c -3.63648,3.63649 -3.63648,9.61909 0,13.25557 3.6365,3.63648 9.6191,3.63648 13.25558,0 l 37.53791,-37.53791 c 0.17607,-0.17589 0.3519,-0.41057 0.52788,-0.5865 l 11.61329,11.67195 c 10.96811,10.96811 10.96811,28.79862 0,39.82538 l -45.80799,45.74932 c -10.96811,10.96811 -28.7986,10.96811 -39.82538,0 l -51.26272,-51.26273 z"
       id="path864"
       style="fill:#b87600;fill-opacity:1;stroke-width:0.999998" />
  </g>
</svg>
