<?xml version="1.0" encoding="UTF-8" standalone="no"?>
<svg
   viewBox="0 0 655 512"
   version="1.1"
   id="svg4420"
   sodipodi:docname="SCAss.svg"
   width="655"
   height="512"
   inkscape:version="1.1.2 (0a00cf5339, 2022-02-04)"
   xmlns:inkscape="http://www.inkscape.org/namespaces/inkscape"
   xmlns:sodipodi="http://sodipodi.sourceforge.net/DTD/sodipodi-0.dtd"
   xmlns="http://www.w3.org/2000/svg"
   xmlns:svg="http://www.w3.org/2000/svg">
  <defs
     id="defs4424">
    <rect
       x="737.0179"
       y="577.75448"
       width="174.46547"
       height="603.86701"
       id="rect62821" />
  </defs>
  <sodipodi:namedview
     id="namedview4422"
     pagecolor="#ffffff"
     bordercolor="#666666"
     borderopacity="1.0"
     inkscape:pageshadow="2"
     inkscape:pageopacity="0.0"
     inkscape:pagecheckerboard="0"
     showgrid="false"
     inkscape:snap-text-baseline="false"
     inkscape:zoom="1.5273437"
     inkscape:cx="397.09463"
     inkscape:cy="266.4757"
     inkscape:window-width="2560"
     inkscape:window-height="1403"
     inkscape:window-x="0"
     inkscape:window-y="0"
     inkscape:window-maximized="1"
     inkscape:current-layer="svg4420" />
  <!--!Font Awesome Free 6.5.1 by @fontawesome - https://fontawesome.com License - https://fontawesome.com/license/free Copyright 2024 Fonticons, Inc.-->
  <path
     d="M 176,24 C 176,10.7 165.3,0 152,0 138.7,0 128,10.7 128,24 V 64 C 92.7,64 64,92.7 64,128 H 24 c -13.3,0 -24,10.7 -24,24 0,13.3 10.7,24 24,24 h 40 v 56 H 24 c -13.3,0 -24,10.7 -24,24 0,13.3 10.7,24 24,24 h 40 v 56 H 24 c -13.3,0 -24,10.7 -24,24 0,13.3 10.7,24 24,24 h 40 c 0,35.3 28.7,64 64,64 v 40 c 0,13.3 10.7,24 24,24 13.3,0 24,-10.7 24,-24 v -40 h 56 v 40 c 0,13.3 10.7,24 24,24 13.3,0 24,-10.7 24,-24 v -40 h 56 v 40 c 0,13.3 10.7,24 24,24 13.3,0 24,-10.7 24,-24 v -40 c 35.3,0 64,-28.7 64,-64 h 40 c 13.3,0 24,-10.7 24,-24 0,-13.3 -10.7,-24 -24,-24 h -40 v -56 h 40 c 13.3,0 24,-10.7 24,-24 0,-13.3 -10.7,-24 -24,-24 h -40 v -56 h 40 c 13.3,0 24,-10.7 24,-24 0,-13.3 -10.7,-24 -24,-24 H 448 C 448,92.7 419.3,64 384,64 V 24 C 384,10.7 373.3,0 360,0 346.7,0 336,10.7 336,24 V 64 H 280 V 24 C 280,10.7 269.3,0 256,0 242.7,0 232,10.7 232,24 v 40 h -56 z m -16,104 h 192 c 17.7,0 32,14.3 32,32 v 192 c 0,17.7 -14.3,32 -32,32 H 160 c -17.7,0 -32,-14.3 -32,-32 V 160 c 0,-17.7 14.3,-32 32,-32 z m 192,32 H 160 v 192 h 192 z"
     id="path4418"
     style="fill:#d4ae00;fill-opacity:1" />
  <path
     d="m 533.89232,318.28118 c 0,26.89059 -8.73089,51.7307 -23.43864,71.884 l 74.18331,74.22741 c 7.32457,7.32314 7.32457,19.21593 0,26.53908 -7.32458,7.32314 -19.21969,7.32314 -26.54426,0 l -74.18331,-74.22741 c -20.15724,14.76346 -45.0022,23.43407 -71.89805,23.43407 -67.3275,0 -121.88095,-54.54279 -121.88095,-121.85715 0,-67.31435 54.55345,-121.85715 121.88095,-121.85715 67.32751,0 121.88095,54.5428 121.88095,121.85715 z m -121.88095,84.36264 a 84.37912,84.362642 0 1 0 0,-168.72528 84.37912,84.362642 0 1 0 0,168.72528 z"
     id="path4580"
     style="fill:#b87600;fill-opacity:1;stroke-width:1" />
  <text
     xml:space="preserve"
     style="font-style:normal;font-variant:normal;font-weight:bold;font-stretch:normal;font-size:106.667px;line-height:1.25;font-family:sans-serif;-inkscape-font-specification:'sans-serif, Bold';font-variant-ligatures:normal;font-variant-caps:normal;font-variant-numeric:normal;font-variant-east-asian:normal;letter-spacing:0px;word-spacing:0px;writing-mode:lr-tb;fill:#b87600;fill-opacity:1;stroke:none;stroke-opacity:1"
     x="584.67041"
     y="503.66241"
     id="text11415"><tspan
       id="tspan11413"
       x="584.67041"
       y="503.66241"
       style="font-style:normal;font-variant:normal;font-weight:bold;font-stretch:normal;font-size:106.667px;font-family:sans-serif;-inkscape-font-specification:'sans-serif, Bold';font-variant-ligatures:normal;font-variant-caps:normal;font-variant-numeric:normal;font-variant-east-asian:normal;writing-mode:lr-tb;direction:ltr;text-orientation:upright;fill:#b87600;fill-opacity:1;stroke:none;stroke-opacity:1"
       sodipodi:role="line">0</tspan></text>
  <text
     xml:space="preserve"
     style="font-style:normal;font-variant:normal;font-weight:bold;font-stretch:normal;font-size:106.667px;line-height:1.25;font-family:sans-serif;-inkscape-font-specification:'sans-serif, Bold';font-variant-ligatures:normal;font-variant-caps:normal;font-variant-numeric:normal;font-variant-east-asian:normal;letter-spacing:0px;word-spacing:0px;writing-mode:lr-tb;fill:#b87600;fill-opacity:1;stroke:none;stroke-opacity:1"
     x="582.32666"
     y="400.25851"
     id="text11415-6"><tspan
       id="tspan11413-7"
       x="582.32666"
       y="400.25851"
       style="font-style:normal;font-variant:normal;font-weight:bold;font-stretch:normal;font-size:106.667px;font-family:sans-serif;-inkscape-font-specification:'sans-serif, Bold';font-variant-ligatures:normal;font-variant-caps:normal;font-variant-numeric:normal;font-variant-east-asian:normal;writing-mode:lr-tb;direction:ltr;text-orientation:upright;fill:#b87600;fill-opacity:1;stroke:none;stroke-opacity:1"
       sodipodi:role="line">1</tspan></text>
  <text
     xml:space="preserve"
     style="font-style:normal;font-variant:normal;font-weight:bold;font-stretch:normal;font-size:106.667px;line-height:1.25;font-family:sans-serif;-inkscape-font-specification:'sans-serif, Bold';font-variant-ligatures:normal;font-variant-caps:normal;font-variant-numeric:normal;font-variant-east-asian:normal;letter-spacing:0px;word-spacing:0px;writing-mode:lr-tb;fill:#b87600;fill-opacity:1;stroke:none;stroke-opacity:1"
     x="582.32666"
     y="296.80255"
     id="text11415-5"><tspan
       id="tspan11413-78"
       x="582.32666"
       y="296.80255"
       style="font-style:normal;font-variant:normal;font-weight:bold;font-stretch:normal;font-size:106.667px;font-family:sans-serif;-inkscape-font-specification:'sans-serif, Bold';font-variant-ligatures:normal;font-variant-caps:normal;font-variant-numeric:normal;font-variant-east-asian:normal;writing-mode:lr-tb;direction:ltr;text-orientation:upright;fill:#b87600;fill-opacity:1;stroke:none;stroke-opacity:1"
       sodipodi:role="line">1</tspan></text>
  <text
     xml:space="preserve"
     style="font-style:normal;font-variant:normal;font-weight:bold;font-stretch:normal;font-size:106.667px;line-height:1.25;font-family:sans-serif;-inkscape-font-specification:'sans-serif, Bold';font-variant-ligatures:normal;font-variant-caps:normal;font-variant-numeric:normal;font-variant-east-asian:normal;letter-spacing:0px;word-spacing:0px;writing-mode:lr-tb;fill:#b87600;fill-opacity:1;stroke:none;stroke-opacity:1"
     x="584.67041"
     y="193.29446"
     id="text11415-8"><tspan
       id="tspan11413-9"
       x="584.67041"
       y="193.29446"
       style="font-style:normal;font-variant:normal;font-weight:bold;font-stretch:normal;font-size:106.667px;font-family:sans-serif;-inkscape-font-specification:'sans-serif, Bold';font-variant-ligatures:normal;font-variant-caps:normal;font-variant-numeric:normal;font-variant-east-asian:normal;writing-mode:lr-tb;direction:ltr;text-orientation:upright;fill:#b87600;fill-opacity:1;stroke:none;stroke-opacity:1"
       sodipodi:role="line">0</tspan></text>
  <text
     xml:space="preserve"
     style="font-style:normal;font-variant:normal;font-weight:bold;font-stretch:normal;font-size:106.667px;line-height:1.25;font-family:sans-serif;-inkscape-font-specification:'sans-serif, Bold';font-variant-ligatures:normal;font-variant-caps:normal;font-variant-numeric:normal;font-variant-east-asian:normal;letter-spacing:0px;word-spacing:0px;writing-mode:lr-tb;fill:#b87600;fill-opacity:1;stroke:none;stroke-opacity:1"
     x="582.32666"
     y="89.890556"
     id="text11415-0"><tspan
       id="tspan11413-780"
       x="582.32666"
       y="89.890556"
       style="font-style:normal;font-variant:normal;font-weight:bold;font-stretch:normal;font-size:106.667px;font-family:sans-serif;-inkscape-font-specification:'sans-serif, Bold';font-variant-ligatures:normal;font-variant-caps:normal;font-variant-numeric:normal;font-variant-east-asian:normal;writing-mode:lr-tb;direction:ltr;text-orientation:upright;fill:#b87600;fill-opacity:1;stroke:none;stroke-opacity:1"
       sodipodi:role="line">1</tspan></text>
  <text
     xml:space="preserve"
     style="font-style:normal;font-weight:normal;font-size:40px;line-height:1.25;font-family:sans-serif;letter-spacing:0px;word-spacing:0px;fill:#000000;fill-opacity:1;stroke:none"
     x="612.15857"
     y="555.5141"
     id="text47431"><tspan
       sodipodi:role="line"
       id="tspan47429"
       x="612.15857"
       y="555.5141"></tspan></text>
  <text
     xml:space="preserve"
     id="text62819"
     style="fill:black;fill-opacity:1;stroke:none;font-family:sans-serif;font-style:normal;font-weight:normal;font-size:40px;line-height:1.25;letter-spacing:0px;word-spacing:0px;white-space:pre;shape-inside:url(#rect62821)" />
</svg>
